<svg width="80" height="80" viewBox="0 0 80 80" fill="none" xmlns="http://www.w3.org/2000/svg">
<path d="M3.03427 38.4598H0C0.0891418 35.9915 0.408745 33.537 0.954948 31.1282L3.8968 31.9137L4.69773 28.9411L1.74047 28.1556C2.47555 25.7973 3.42953 23.5129 4.58991 21.3323L7.22372 22.8571L8.76396 20.1771L6.13015 18.6677C7.44898 16.5845 8.95437 14.6255 10.6276 12.8148L12.7686 14.9557L14.9557 12.7686L12.8148 10.6276C14.6255 8.95437 16.5845 7.44898 18.6677 6.13015L20.1771 8.76396L22.8571 7.22372L21.3323 4.58991C23.5129 3.42953 25.7973 2.47555 28.1556 1.74047L28.9411 4.69773L31.9137 3.8968L31.1282 0.954948C33.537 0.408741 35.9915 0.0891413 38.4598 0V3.03427H41.5402V0C44.0085 0.0891413 46.463 0.408741 48.8718 0.954948L48.0863 3.8968L51.0589 4.69773L51.8444 1.74047C54.2027 2.47555 56.4871 3.42953 58.6677 4.58991L57.1429 7.22372L59.8229 8.76396L61.3323 6.13015C63.4155 7.44898 65.3745 8.95437 67.1852 10.6276L65.0443 12.7686L67.2314 14.9557L69.3724 12.8148C71.0456 14.6255 72.551 16.5845 73.8698 18.6677L71.236 20.1771L72.7763 22.8571L75.4101 21.3323C76.5705 23.5129 77.5245 25.7973 78.2595 28.1556L75.3023 28.9411L76.1032 31.9137L79.0451 31.1282C79.5913 33.537 79.9109 35.9915 80 38.4598H76.9657V41.5402H80C79.9109 44.0085 79.5913 46.463 79.0451 48.8718L76.1032 48.0863L75.3023 51.0589L78.2595 51.8444C77.5245 54.2027 76.5705 56.4871 75.4101 58.6677L72.7763 57.1429L71.236 59.8229L73.8698 61.3323C72.551 63.4155 71.0456 65.3745 69.3724 67.1852L67.2314 65.0443L65.0443 67.2314L67.1852 69.3724C65.3745 71.0456 63.4155 72.551 61.3323 73.8699L59.8229 71.236L57.1429 72.7763L58.6677 75.4101C56.4871 76.5705 54.2027 77.5245 51.8444 78.2595L51.0589 75.3023L48.0863 76.1032L48.8718 79.0451C46.463 79.5911 44.0085 79.9109 41.5402 80V76.9657H38.4598V80C35.9915 79.9109 33.537 79.5913 31.1282 79.0451L31.9137 76.1032L28.9411 75.3023L28.1556 78.2595C25.7973 77.5245 23.5129 76.5705 21.3323 75.4101L22.8571 72.7763L20.1771 71.236L18.6677 73.8699C16.5845 72.551 14.6255 71.0456 12.8148 69.3724L14.9557 67.2314L12.7686 65.0443L10.6276 67.1852C8.95437 65.3745 7.44898 63.4155 6.13015 61.3323L8.76396 59.8229L7.22372 57.1429L4.58991 58.6677C3.42953 56.4871 2.47555 54.2027 1.74047 51.8444L4.69773 51.0589L3.8968 48.0863L0.954948 48.8718C0.408745 46.463 0.0891418 44.0085 0 41.5402H3.03427V38.4598ZM40 69.2645C56.1623 69.2645 69.2645 56.1623 69.2645 40C69.2501 23.8437 56.1563 10.7499 40 10.7355C23.8377 10.7355 10.7355 23.8377 10.7355 40C10.7355 56.1623 23.8377 69.2645 40 69.2645ZM40 13.8159C54.4611 13.8159 66.1841 25.5389 66.1841 40C66.1636 54.4526 54.4526 66.1637 40 66.1841C25.5389 66.1841 13.8159 54.4611 13.8159 40C13.8159 25.5389 25.5389 13.8159 40 13.8159ZM40 63.1036C52.7597 63.1036 63.1036 52.7597 63.1036 40C63.0884 27.2466 52.7534 16.9116 40 16.8964C27.2403 16.8964 16.8964 27.2403 16.8964 40C16.8964 52.7597 27.2403 63.1036 40 63.1036ZM28.8487 36.9195H20.2387C19.8897 38.9584 19.8897 41.0416 20.2387 43.0805H28.8487C29.4721 43.0782 30.0339 43.4567 30.2657 44.0354C30.5069 44.609 30.3793 45.2713 29.9422 45.7143L23.8429 51.7828C25.0641 53.4505 26.5341 54.9205 28.2018 56.1417L34.2857 50.0578C34.7285 49.6207 35.391 49.4931 35.9646 49.7343C36.5433 49.9661 36.9218 50.5279 36.9195 51.1513V59.7613C38.9584 60.1103 41.0416 60.1103 43.0805 59.7613V51.1513C43.0782 50.5279 43.4567 49.9661 44.0354 49.7343C44.609 49.4931 45.2713 49.6207 45.7143 50.0578L51.7982 56.1417C53.4659 54.9205 54.9359 53.4505 56.1571 51.7828L50.0578 45.7143C49.6207 45.2715 49.4931 44.609 49.7343 44.0354C49.9661 43.4567 50.5279 43.0782 51.1513 43.0805H59.7613C60.1103 41.0416 60.1103 38.9584 59.7613 36.9195H51.1513C50.5279 36.9218 49.9661 36.5433 49.7343 35.9646C49.4931 35.391 49.6207 34.7287 50.0578 34.2857L56.1571 28.2172C54.9309 26.5443 53.4557 25.0691 51.7828 23.8429L45.7143 29.9422C45.423 30.2295 45.0298 30.3901 44.6207 30.3889C43.7753 30.3766 43.0928 29.6941 43.0805 28.8487V20.2387C41.0416 19.8897 38.9584 19.8897 36.9195 20.2387V28.8487C36.9072 29.6941 36.2247 30.3766 35.3793 30.3889C34.9702 30.3901 34.577 30.2295 34.2857 29.9422L28.2172 23.8429C26.5443 25.0691 25.0691 26.5443 23.8429 28.2172L29.9422 34.2857C30.3793 34.7285 30.5069 35.391 30.2657 35.9646C30.0339 36.5433 29.4721 36.9218 28.8487 36.9195Z" fill="#E9EDF0"/>
</svg>
