<svg width="118" height="118" viewBox="0 0 118 118" fill="none" xmlns="http://www.w3.org/2000/svg">
<path d="M4.47554 56.7281H0C0.131477 53.0875 0.60289 49.467 1.40855 45.9141L5.74778 47.0728L6.92915 42.6881L2.56718 41.5295C3.65143 38.051 5.05856 34.6815 6.77012 31.4652L10.655 33.7143L12.9268 29.7613L9.04197 27.5348C10.9872 24.4622 13.2077 21.5727 15.6758 18.9018L18.8336 22.0597L22.0597 18.8337L18.9018 15.6758C21.5727 13.2077 24.4622 10.9872 27.5348 9.04197L29.7613 12.9268L33.7143 10.655L31.4651 6.77012C34.6815 5.05856 38.051 3.65143 41.5295 2.56719L42.6881 6.92915L47.0728 5.74779L45.9141 1.40855C49.467 0.602893 53.0875 0.131483 56.7281 0V4.47555H61.2719V0C64.9125 0.131483 68.533 0.602893 72.0859 1.40855L70.9272 5.74779L75.3119 6.92915L76.4705 2.56719C79.949 3.65143 83.3185 5.05856 86.5348 6.77012L84.2857 10.655L88.2387 12.9268L90.4652 9.04197C93.5378 10.9872 96.4273 13.2077 99.0982 15.6758L95.9403 18.8337L99.1663 22.0597L102.324 18.9018C104.792 21.5727 107.013 24.4622 108.958 27.5348L105.073 29.7613L107.345 33.7143L111.23 31.4652C112.941 34.6815 114.349 38.051 115.433 41.5295L111.071 42.6881L112.252 47.0728L116.591 45.9141C117.397 49.467 117.869 53.0875 118 56.7281H113.524V61.2719H118C117.869 64.9125 117.397 68.533 116.591 72.0859L112.252 70.9272L111.071 75.3119L115.433 76.4705C114.349 79.949 112.941 83.3185 111.23 86.5349L107.345 84.2857L105.073 88.2387L108.958 90.4652C107.013 93.5378 104.792 96.4273 102.324 99.0982L99.1663 95.9403L95.9403 99.1664L99.0982 102.324C96.4273 104.792 93.5378 107.013 90.4652 108.958L88.2387 105.073L84.2857 107.345L86.5348 111.23C83.3185 112.941 79.949 114.349 76.4705 115.433L75.3119 111.071L70.9272 112.252L72.0859 116.591C68.533 117.397 64.9125 117.869 61.2719 118V113.524H56.7281V118C53.0875 117.869 49.467 117.397 45.9141 116.591L47.0728 112.252L42.6881 111.071L41.5295 115.433C38.051 114.349 34.6815 112.941 31.4651 111.23L33.7143 107.345L29.7613 105.073L27.5348 108.958C24.4622 107.013 21.5727 104.792 18.9018 102.324L22.0597 99.1664L18.8336 95.9403L15.6758 99.0982C13.2077 96.4273 10.9872 93.5378 9.04197 90.4652L12.9268 88.2387L10.655 84.2857L6.77012 86.5349C5.05856 83.3185 3.65143 79.949 2.56718 76.4705L6.92915 75.3119L5.74778 70.9272L1.40855 72.0859C0.60289 68.533 0.131477 64.9125 0 61.2719H4.47554V56.7281ZM59 102.165C82.8394 102.165 102.165 82.8394 102.165 59C102.144 35.1694 82.8306 15.8561 59 15.8348C35.1606 15.8348 15.8348 35.1606 15.8348 59C15.8348 82.8394 35.1606 102.165 59 102.165ZM59 20.3785C80.3301 20.3785 97.6215 37.6699 97.6215 59C97.5914 80.3176 80.3176 97.5914 59 97.6215C37.6699 97.6215 20.3785 80.3301 20.3785 59C20.3785 37.6699 37.6699 20.3785 59 20.3785ZM59 93.0778C77.8206 93.0778 93.0778 77.8206 93.0778 59C93.0553 40.1888 77.8112 24.9447 59 24.9222C40.1794 24.9222 24.9222 40.1794 24.9222 59C24.9222 77.8206 40.1794 93.0778 59 93.0778ZM42.5518 54.4563H29.8521C29.3373 57.4637 29.3373 60.5363 29.8521 63.5437H42.5518C43.4713 63.5403 44.3 64.0986 44.6419 64.9523C44.9977 65.7982 44.8094 66.7751 44.1648 67.4286L35.1683 76.3797C36.9696 78.8395 39.1378 81.0077 41.5976 82.809L50.5714 73.8352C51.2246 73.1906 52.2018 73.0023 53.0477 73.3581C53.9014 73.7 54.4597 74.5287 54.4563 75.4482V88.1479C57.4637 88.6627 60.5363 88.6627 63.5437 88.1479V75.4482C63.5403 74.5287 64.0986 73.7 64.9522 73.3581C65.7982 73.0023 66.7751 73.1906 67.4286 73.8352L76.4024 82.809C78.8622 81.0077 81.0304 78.8395 82.8317 76.3797L73.8352 67.4286C73.1906 66.7754 73.0023 65.7982 73.3581 64.9523C73.7 64.0986 74.5287 63.5403 75.4482 63.5437H88.1479C88.6627 60.5363 88.6627 57.4637 88.1479 54.4563H75.4482C74.5287 54.4597 73.7 53.9014 73.3581 53.0478C73.0023 52.2018 73.1906 51.2249 73.8352 50.5714L82.8317 41.6203C81.023 39.1528 78.8472 36.977 76.3797 35.1683L67.4286 44.1648C66.9989 44.5885 66.419 44.8253 65.8156 44.8236C64.5686 44.8055 63.5619 43.7988 63.5437 42.5518V29.8521C60.5363 29.3373 57.4637 29.3373 54.4563 29.8521V42.5518C54.4381 43.7988 53.4314 44.8055 52.1844 44.8236C51.581 44.8253 51.0011 44.5885 50.5714 44.1648L41.6203 35.1683C39.1528 36.977 36.9769 39.1528 35.1683 41.6203L44.1648 50.5714C44.8094 51.2246 44.9977 52.2018 44.6419 53.0478C44.3 53.9014 43.4713 54.4597 42.5518 54.4563Z" fill="#E9EDF0"/>
</svg>
