<svg width="203" height="46" viewBox="0 0 203 46" fill="none" xmlns="http://www.w3.org/2000/svg">
<g clip-path="url(#clip0_121_5033)">
<path d="M164.425 4.47947H109.935C111.15 1.67461 113.496 0 116.972 0H169.236C168.764 2.33654 167.16 3.92904 164.425 4.47947ZM152.741 6.71972H107.991C105.664 7.31374 104.039 8.87076 103.12 11.1242H146.451C150.007 10.9204 152.105 9.30765 152.741 6.71972ZM105.42 13.4597H131.876C130.686 16.3811 128.312 17.5509 124.755 17.5509H117.601C118.789 18.7238 119.448 20.8971 119.383 22.8292C118.789 30.4562 114.461 32.8505 107.334 32.8505L71.8702 32.8008C68.3065 32.8008 67.119 31.0421 67.7127 28.1085L71.2155 17.5499H63.5553L51.082 32.8008H20.7923C17.2287 32.8008 16.0411 31.627 16.0411 29.8692C10.6961 35.7344 0.00513035 33.9747 0.00513035 25.7628C0.00513035 17.5499 7.72624 13.4445 15.4463 13.4445H31.9624L27.1006 28.1085H39.2044L38.0169 13.4445H48.7069V27.5226L59.9916 13.4445C65.9304 13.4445 71.2764 14.0304 76.0276 9.92499C77.81 8.16523 80.1851 5.81855 81.9674 1.71313H87.1632L83.2757 13.4465L91.4698 13.4445C90.2823 16.3771 87.9062 17.5509 83.7487 17.5509L81.9126 17.552L78.4037 28.1095H92.6584C91.4932 26.3872 92.1458 13.9584 105.42 13.4597ZM19.5337 17.5499H13.8436C13.5331 18.6325 11.2899 24.589 11.2899 25.7628C11.2899 27.5226 13.0722 28.1085 16.0411 28.1085L19.5337 17.5499ZM110.612 17.5438L104.412 17.4587C103.452 20.3974 101.565 25.8094 101.565 26.3487C101.565 28.6954 103.94 28.6954 106.91 28.6954L110.612 17.5438ZM128.126 26.0233C126.152 26.0233 124.554 27.6006 124.554 29.5459C124.554 31.4911 126.153 33.0684 128.126 33.0684C130.099 33.0684 131.697 31.4921 131.697 29.5459C131.697 27.6006 130.098 26.0233 128.126 26.0233ZM181.97 22.8586H203C202.608 24.4227 201.433 25.2103 199.47 25.2103H187.483C187.81 25.4263 188.07 25.8165 188.276 26.3882C188.483 26.965 188.568 27.4617 188.527 27.8824C188.391 29.5175 187.668 30.8008 186.368 31.7283C185.123 32.6214 183.501 33.0725 181.513 33.0826C180.524 33.0907 179.633 33.0117 178.838 32.8464H166.329C164.838 32.8464 164.095 32.2301 164.095 30.9965C164.095 30.6802 164.155 30.3447 164.286 29.9838L165.861 25.2103H162.829L161.044 30.593C160.156 33.2691 159.001 32.8525 157.315 32.8474H146.501C145.291 32.8474 144.673 32.2261 144.644 30.9823C145.095 30.7968 145.552 30.6163 146.014 30.441C146.662 30.145 147.149 29.7892 147.486 29.3675C147.937 28.8059 148.164 28.0943 148.164 27.2215C148.164 26.6853 147.913 26.2088 147.411 25.7973C146.913 25.3867 146.431 25.2154 145.558 25.2103L141.145 38.5048H135.807L142.163 19.3046H147.517L146.341 22.8495C148.55 22.8495 150.212 22.96 150.924 23.1657C152.671 23.6472 153.511 24.7704 153.44 26.5302C153.404 27.3127 153.053 28.1044 152.395 28.8971C151.722 29.7192 150.939 30.2514 150.061 30.4967H157.789L159.548 25.1515C159.017 25.0167 158.608 24.6812 158.291 24.2879C157.913 23.8175 157.724 23.2701 157.724 22.6528C157.724 21.5246 158.251 20.6518 159.301 20.0355C160.169 19.5286 161.209 19.2732 162.419 19.2732H164.8L163.612 22.8586H171.558L169.023 30.4957H175.042C174.688 29.9037 174.51 29.2286 174.51 28.4693C174.51 28.2038 174.535 27.9382 174.585 27.6766C174.841 26.1977 175.572 25.0309 176.79 24.1916C178.081 23.3016 179.811 22.8586 181.97 22.8586ZM184.08 25.2103H180.749L179.495 28.9711C179.43 29.1668 179.394 29.3523 179.394 29.5276C179.394 30.37 180.178 30.7907 181.749 30.7907C181.935 30.7907 182.095 30.7856 182.231 30.7755L184.08 25.2103ZM3.22776 44.7947C2.93848 44.9934 2.57308 45.0928 2.13156 45.0928C1.6474 45.0928 1.34189 44.9093 1.21298 44.5413C1.08408 44.1733 1.13787 43.6391 1.37132 42.9387L1.56214 42.3649C1.79864 41.6736 2.10821 41.1495 2.48884 40.7917C2.87149 40.4349 3.30693 40.2555 3.79616 40.2555C4.21738 40.2555 4.5026 40.3588 4.65282 40.5646C4.80202 40.7704 4.82638 41.1059 4.72488 41.5712H5.84646C6.01089 40.8626 5.93984 40.3153 5.63229 39.928C5.32475 39.5418 4.81319 39.3482 4.09863 39.3482C3.56778 39.3482 3.05724 39.4739 2.56801 39.7263C2.07979 39.9787 1.64842 40.3365 1.27693 40.8028C0.905435 41.2681 0.617175 41.8064 0.414175 42.4166L0.213205 43.0208C0.0234003 43.6168 -0.0395296 44.1399 0.0244154 44.59C0.0883604 45.04 0.27512 45.3877 0.58774 45.633C0.899345 45.8773 1.31347 46 1.8301 46C2.56902 46 3.22573 45.8064 3.80022 45.4202C4.37471 45.0329 4.80912 44.4947 5.10449 43.8033H3.9819C3.76774 44.2656 3.51703 44.596 3.22776 44.7947ZM11.0828 39.4374L11.3792 45.9118H10.2039L10.1764 44.4045H7.66534L6.63816 45.9108H5.46685L10.0729 39.4364H11.0828V39.4374ZM10.1622 43.4972L10.1176 40.8109L8.28347 43.4972H10.1622ZM18.7532 39.9402C19.0486 40.2747 19.0902 40.7603 18.878 41.3948C18.7339 41.8277 18.5076 42.1906 18.202 42.4835C17.8955 42.7755 17.5291 43.0005 17.1028 43.1576L17.66 45.854L17.6408 45.9118H16.4339L15.964 43.4222H14.7084L13.8792 45.9118H12.7525L14.9094 39.4374H17.1891C17.9361 39.4374 18.4578 39.6047 18.7532 39.9402ZM17.7077 40.6376C17.5738 40.4481 17.3119 40.3497 16.9221 40.3447H15.7336L15.0109 42.515H16.168C16.5476 42.515 16.8765 42.4187 17.1536 42.2281C17.4306 42.0365 17.6255 41.775 17.7351 41.4435C17.8519 41.0958 17.8417 40.8272 17.7077 40.6376ZM27.1848 42.9802C26.6499 43.334 26.0074 43.5094 25.2563 43.5094H23.9165L23.1167 45.9108H21.99L24.1469 39.4364H26.6265C27.3513 39.4364 27.8628 39.6249 28.1633 40.002C28.4637 40.3791 28.5104 40.8778 28.3043 41.4982C28.0922 42.1328 27.7187 42.6275 27.1848 42.9802ZM27.1706 41.5043C27.2873 41.1546 27.2731 40.8758 27.129 40.666C26.9848 40.4572 26.727 40.3497 26.3545 40.3436H24.9701L24.2169 42.6021H25.5699C25.9709 42.6021 26.3078 42.5079 26.5809 42.3193C26.8559 42.1328 27.0518 41.8601 27.1706 41.5043ZM32.7003 39.4374L32.9967 45.9118H31.8213L31.7939 44.4045H29.2828L28.2556 45.9118H27.0843L31.6904 39.4374H32.7003ZM31.7797 43.4972L31.735 40.812L29.9009 43.4972H31.7797ZM40.3707 39.9402C40.666 40.2747 40.7076 40.7603 40.4955 41.3948C40.3514 41.8277 40.125 42.1906 39.8195 42.4835C39.513 42.7755 39.1466 43.0005 38.7203 43.1576L39.2775 45.854L39.2582 45.9118H38.0514L37.5814 43.4222H36.3259L35.4966 45.9118H34.37L36.5269 39.4374H38.8065C39.5536 39.4374 40.0753 39.6047 40.3707 39.9402ZM39.3252 40.6376C39.1912 40.4481 38.9294 40.3497 38.5396 40.3447H37.351L36.6284 42.515H37.7855C38.1651 42.515 38.4939 42.4187 38.771 42.2281C39.0481 42.0365 39.243 41.775 39.3536 41.4435C39.4683 41.0958 39.4592 40.8272 39.3252 40.6376ZM47.3163 39.4374H42.1733L41.8718 40.3447H43.8755L42.0211 45.9118H43.1376L44.993 40.3447H47.0138L47.3163 39.4374ZM52.0543 39.5976C51.7559 39.4313 51.3814 39.3482 50.9307 39.3482C50.2507 39.3482 49.6417 39.5175 49.1027 39.855C48.5637 40.1926 48.2085 40.6224 48.0339 41.1445C47.835 41.7405 47.97 42.223 48.4369 42.594C48.6815 42.7866 49.0388 42.962 49.5087 43.1191C49.9787 43.2762 50.2882 43.4323 50.4374 43.5864C50.5856 43.7405 50.613 43.9595 50.5186 44.2443C50.4313 44.5048 50.2629 44.7146 50.0132 44.8728C49.7625 45.0319 49.4417 45.111 49.0499 45.111C48.5962 45.111 48.2806 45.0106 48.104 44.8089C47.9273 44.6072 47.9009 44.3224 48.0238 43.9554H46.8971C46.7621 44.3619 46.752 44.7177 46.8687 45.0228C46.9844 45.3279 47.2108 45.5672 47.5467 45.7415C47.8817 45.9149 48.2846 46.001 48.7536 46.001C49.463 46.001 50.0781 45.8419 50.5978 45.5226C51.1185 45.2043 51.4687 44.7755 51.6483 44.2352C51.759 43.9027 51.7843 43.6138 51.7245 43.3664C51.6646 43.1191 51.5133 42.8991 51.2718 42.7086C51.0302 42.517 50.681 42.3467 50.2273 42.1967C49.7726 42.0476 49.462 41.8936 49.2945 41.7344C49.1281 41.5763 49.0834 41.3786 49.1626 41.1414C49.256 40.8596 49.4306 40.6406 49.6863 40.4835C49.9421 40.3264 50.2537 40.2484 50.6222 40.2484C51.017 40.2484 51.288 40.3447 51.4372 40.5352C51.5854 40.7268 51.6037 40.9914 51.491 41.3289H52.6126C52.7374 40.9559 52.7496 40.6153 52.6501 40.3092C52.5517 39.999 52.3527 39.7628 52.0543 39.5976ZM62.9788 39.4374L59.4598 44.3994L59.2436 39.4374H57.783L55.6261 45.9118H56.7477L57.4592 43.778L58.2976 40.9275L58.5463 45.9118H59.3522L62.929 40.9225L61.8663 43.777L61.1548 45.9108H62.2764L64.4333 39.4364H62.9788V39.4374ZM69.3652 39.4374L69.6615 45.9118H68.4862L68.4588 44.4045H65.9477L64.9205 45.9118H63.7492L68.3552 39.4374H69.3652ZM68.4445 43.4972L68.3999 40.812L66.5658 43.4972H68.4445ZM77.0345 39.9402C77.3299 40.2747 77.3715 40.7603 77.1593 41.3948C77.0152 41.8277 76.7889 42.1906 76.4834 42.4835C76.1768 42.7755 75.8104 43.0005 75.3841 43.1576L75.9413 45.854L75.9221 45.9108H74.7152L74.2453 43.4212H72.9897L72.1605 45.9108H71.0338L73.1907 39.4364H75.4704C76.2184 39.4374 76.7402 39.6047 77.0345 39.9402ZM75.989 40.6376C75.8551 40.4481 75.5932 40.3497 75.2034 40.3447H74.0149L73.2922 42.515H74.4503C74.8299 42.515 75.1588 42.4187 75.4359 42.2281C75.713 42.0365 75.9078 41.775 76.0185 41.4435C76.1332 41.0958 76.124 40.8272 75.989 40.6376ZM84.5272 39.4374H83.1651L80.5129 41.705L79.6329 42.4744L80.6449 39.4374H79.5182L77.3613 45.9118H78.488L79.1609 43.8936L80.1546 43.1151L81.1727 45.9118H82.5084L81.1635 42.3061L84.5272 39.4374ZM83.7477 45.9108H87.9863L88.2858 45.0127H85.1738L85.8376 43.0208H88.4999L88.7963 42.1318H86.133L86.7288 40.3447H89.8093L90.1118 39.4374H85.9046L83.7477 45.9108ZM96.4717 39.4374H91.3298L91.0273 40.3447H93.0309L91.1755 45.9118H92.293L94.1474 40.3447H96.1683L96.4717 39.4374ZM101.977 40.002C102.278 40.3791 102.324 40.8778 102.118 41.4982C101.907 42.1328 101.534 42.6275 100.999 42.9802C100.464 43.334 99.8213 43.5094 99.0702 43.5094H97.7303L96.9305 45.9108H95.8039L97.9608 39.4364H100.44C101.164 39.4374 101.677 39.626 101.977 40.002ZM100.943 40.666C100.799 40.4572 100.541 40.3497 100.168 40.3436H98.7839L98.0308 42.6021H99.3838C99.7847 42.6021 100.122 42.5079 100.395 42.3193C100.668 42.1318 100.864 41.8591 100.982 41.5033C101.101 41.1546 101.087 40.8758 100.943 40.666ZM105.553 39.4374H104.426L102.269 45.9118H106.339L106.638 45.0137H103.696L105.553 39.4374ZM112.962 39.4374L113.259 45.9118H112.083L112.056 44.4045H109.545L108.518 45.9118H107.346L111.953 39.4374H112.962ZM112.042 43.4972L111.997 40.812L110.163 43.4972H112.042ZM119.182 39.3482C118.652 39.3482 118.141 39.4739 117.652 39.7263C117.164 39.9787 116.732 40.3365 116.361 40.8028C115.989 41.2681 115.701 41.8064 115.498 42.4166L115.296 43.0218C115.106 43.6178 115.043 44.1409 115.107 44.591C115.171 45.0411 115.358 45.3887 115.67 45.6341C115.982 45.8784 116.396 46.001 116.913 46.001C117.652 46.001 118.308 45.8074 118.883 45.4212C119.457 45.034 119.892 44.4957 120.187 43.8044H119.066C118.852 44.2666 118.601 44.5971 118.313 44.7957C118.024 44.9944 117.658 45.0938 117.216 45.0938C116.732 45.0938 116.427 44.9103 116.298 44.5423C116.169 44.1744 116.223 43.6401 116.456 42.9397L116.647 42.3659C116.883 41.6746 117.193 41.1505 117.574 40.7927C117.956 40.4359 118.392 40.2565 118.881 40.2565C119.302 40.2565 119.587 40.3599 119.738 40.5656C119.887 40.7714 119.911 41.1069 119.81 41.5722H120.931C121.096 40.8637 121.025 40.3163 120.717 39.929C120.41 39.5418 119.898 39.3482 119.182 39.3482ZM121.129 45.9108H125.368L125.667 45.0127H122.555L123.219 43.0208H125.881L126.178 42.1318H123.515L124.111 40.3447H127.192L127.494 39.4374H123.287L121.129 45.9108Z" fill="#97AFC1"/>
</g>
<defs>
<clipPath id="clip0_121_5033">
<rect width="203" height="46" fill="white"/>
</clipPath>
</defs>
</svg>
